<svg xmlns="http://www.w3.org/2000/svg" viewBox="0 0 512 512"><path d="M480 136.88v-30.37c0-16.97-6.74-33.25-18.74-45.26l-42.51-42.51A64.037 64.037 0 0 0 373.49 0H174.48C157.64 0 144 14.33 144 32v104.88c-9.45-5.5-20.28-8.88-32-8.88H64c-35.35 0-64 28.65-64 64v256c0 35.35 28.65 64 64 64h48c15.22 0 29.01-5.54 40-14.41 10.99 8.87 24.78 14.41 40 14.41h256c35.35 0 64-28.65 64-64V192c0-23.63-12.95-44.04-32-55.12zM128 448c0 8.82-7.18 16-16 16H64c-8.82 0-16-7.18-16-16V192c0-8.82 7.18-16 16-16h48c8.82 0 16 7.18 16 16v256zm64-400h176v48c0 8.84 7.16 16 16 16h48v80H192V48zm272 400c0 8.82-7.18 16-16 16H192c-8.82 0-16-7.18-16-16V240h288v208zM352 336h32c8.84 0 16-7.16 16-16v-32c0-8.84-7.16-16-16-16h-32c-8.84 0-16 7.16-16 16v32c0 8.84 7.16 16 16 16zm-96 96h32c8.84 0 16-7.16 16-16v-32c0-8.84-7.16-16-16-16h-32c-8.84 0-16 7.16-16 16v32c0 8.84 7.16 16 16 16zm0-96h32c8.84 0 16-7.16 16-16v-32c0-8.84-7.16-16-16-16h-32c-8.84 0-16 7.16-16 16v32c0 8.84 7.16 16 16 16zm96 96h32c8.84 0 16-7.16 16-16v-32c0-8.84-7.16-16-16-16h-32c-8.84 0-16 7.16-16 16v32c0 8.84 7.16 16 16 16z"/></svg>