<svg xmlns="http://www.w3.org/2000/svg" viewBox="0 0 512 512"><path d="M272 432h32c8.84 0 16-7.16 16-16v-32c0-8.84-7.16-16-16-16h-32c-8.84 0-16 7.16-16 16v32c0 8.84 7.16 16 16 16zm0-96h32c8.84 0 16-7.16 16-16v-32c0-8.84-7.16-16-16-16h-32c-8.84 0-16 7.16-16 16v32c0 8.84 7.16 16 16 16zm96 96h32c8.84 0 16-7.16 16-16v-32c0-8.84-7.16-16-16-16h-32c-8.84 0-16 7.16-16 16v32c0 8.84 7.16 16 16 16zm0-96h32c8.84 0 16-7.16 16-16v-32c0-8.84-7.16-16-16-16h-32c-8.84 0-16 7.16-16 16v32c0 8.84 7.16 16 16 16zM80 128H48c-26.51 0-48 21.49-48 48v288c0 26.51 21.49 48 48 48h32c26.51 0 48-21.49 48-48V176c0-26.51-21.49-48-48-48zm16 336c0 8.82-7.18 16-16 16H48c-8.82 0-16-7.18-16-16V176c0-8.82 7.18-16 16-16h32c8.82 0 16 7.18 16 16v288zm384-301.06v-53.68c0-8.49-3.37-16.62-9.37-22.63L393.37 9.37c-6-6-14.14-9.37-22.63-9.37H208c-26.51 0-48 21.49-48 48v416c0 26.51 21.49 48 48 48h256c26.51 0 48-21.49 48-48V208c0-20.87-13.4-38.45-32-45.06zM384 45.25L434.75 96H384V45.25zM192 48c0-8.82 7.18-16 16-16h144v64c0 17.64 14.34 32 32 32h64v64H192V48zm288 416c0 8.82-7.18 16-16 16H208c-8.82 0-16-7.18-16-16V224h288v240z"/></svg>